<svg width="121" height="90" viewBox="0 0 121 90" fill="none" xmlns="http://www.w3.org/2000/svg">
<g clip-path="url(#clip0_349_3519)">
<path d="M57.9488 79.5193C57.766 79.8849 57.7051 80.2505 57.7051 80.738C57.7051 82.2004 58.8628 83.3582 60.3253 83.3582C61.7877 83.3582 62.9454 82.2004 62.9454 80.738V80.677C63.0064 80.2505 62.8845 79.9458 62.7017 79.5802L60.3253 75.9851L57.9488 79.5193Z" fill="url(#paint0_linear_349_3519)"/>
<path d="M61.422 73.5477L64.6515 78.3615C65.0781 79.0928 65.2609 79.8849 65.1999 80.7989C65.1999 83.48 62.9454 85.6737 60.2642 85.6737C57.5222 85.6737 55.3286 83.48 55.3286 80.738C55.3286 79.824 55.5114 79.0928 55.877 78.4225L55.9988 78.2397L59.0456 73.6087L48.8086 78.6053L48.9914 79.4584C50.4538 85.7346 55.0239 90 60.3252 90C65.5046 90 70.0137 85.8565 71.5371 79.7021L71.7199 78.849L61.422 73.5477Z" fill="url(#paint1_linear_349_3519)"/>
<path d="M87.136 51.3067L88.7203 50.7583L86.7095 46.9194H70.501L75.6195 55.633L84.4549 52.2817L86.7095 51.4895L87.136 51.3067Z" fill="url(#paint2_linear_349_3519)"/>
<path d="M89.3291 46.9194L91.0962 50.3318L113.947 53.0738C117.237 50.6364 119.187 48.3819 120.284 46.9194H89.3291Z" fill="url(#paint3_linear_349_3519)"/>
<path d="M89.5127 52.891L97.617 58.2532L100.176 59.9594C100.542 59.8375 100.907 59.7156 101.273 59.5938C101.7 59.4719 102.065 59.2891 102.492 59.1672C102.614 59.1063 102.735 59.0454 102.857 59.0454C103.162 58.9235 103.406 58.8016 103.71 58.6798C103.832 58.6188 103.954 58.5579 104.076 58.5579C104.381 58.436 104.685 58.3141 104.99 58.1313C105.051 58.1313 105.112 58.0704 105.173 58.0704C105.538 57.8876 105.904 57.7048 106.331 57.522C106.392 57.522 106.452 57.4611 106.513 57.4611C106.818 57.3392 107.123 57.1564 107.427 56.9736C107.488 56.9127 107.549 56.9127 107.671 56.8517C108.402 56.4861 109.134 56.1205 109.804 55.694C109.865 55.633 109.926 55.633 109.987 55.5721C110.352 55.3893 110.657 55.2065 110.962 54.9628L90.4267 52.4644L90.0611 52.5863L89.5127 52.891Z" fill="url(#paint4_linear_349_3519)"/>
<path d="M86.4045 63.067C86.4654 63.067 86.4654 63.067 86.5264 63.067C87.3794 62.9452 88.2325 62.8233 89.0247 62.7014C89.1465 62.7014 89.3293 62.6405 89.4512 62.6405C90.3043 62.5186 91.1574 62.3358 91.9495 62.214C92.8026 62.0312 93.5947 61.8484 94.4478 61.6655C94.6306 61.6046 94.7525 61.6046 94.9353 61.5437C95.7274 61.3609 96.5196 61.1781 97.2508 60.9343H97.3117L86.831 53.9878L82.6875 55.5721L86.3436 63.067H86.4045Z" fill="url(#paint5_linear_349_3519)"/>
<path d="M74.8273 63.6764C75.3148 63.6764 75.8632 63.6764 76.4725 63.6764C76.5944 63.6764 76.7772 63.6764 76.8991 63.6764C77.021 63.6764 77.0819 63.6764 77.2038 63.6764C77.3866 63.6764 77.6303 63.6764 77.8131 63.6764C77.874 63.6764 77.9959 63.6764 78.0568 63.6764C78.7881 63.6764 79.6411 63.6155 80.5551 63.5545C80.6161 63.5545 80.677 63.5545 80.7379 63.5545C80.9817 63.5545 81.2864 63.4936 81.5301 63.4936C81.652 63.4936 81.7738 63.4936 81.8957 63.4936C82.1394 63.4936 82.4441 63.4326 82.6878 63.4326C82.8706 63.4326 82.9925 63.4327 83.1753 63.3717C83.4191 63.3717 83.6628 63.3108 83.9065 63.3108L80.4333 56.2424L75.9851 57.8876L74.3398 63.6764C74.4008 63.6764 74.4008 63.6764 74.4617 63.6764C74.6445 63.6764 74.7055 63.6764 74.8273 63.6764Z" fill="url(#paint6_linear_349_3519)"/>
<path d="M68.4899 48.0772L66.54 51.4286L72.5116 61.8483L73.06 60.0812L73.8522 57.2173L68.4899 48.0772Z" fill="url(#paint7_linear_349_3519)"/>
<path d="M33.4525 51.3067L31.8682 50.7583L33.8181 46.9194H50.0875L44.969 55.633L36.0726 52.2817L33.8181 51.4895L33.4525 51.3067Z" fill="url(#paint8_linear_349_3519)"/>
<path d="M31.2589 46.9194L29.4918 50.3318L6.7024 53.0738C3.41195 50.6364 1.46205 48.3819 0.365234 46.9194H31.2589Z" fill="url(#paint9_linear_349_3519)"/>
<path d="M31.0758 52.891L22.9716 58.2532L20.4123 59.9594C20.0467 59.8375 19.6811 59.7156 19.3155 59.5938C18.889 59.4719 18.5234 59.2891 18.0968 59.1672C17.975 59.1063 17.8531 59.0454 17.7312 59.0454C17.4265 58.9235 17.1828 58.8016 16.8781 58.6798C16.7563 58.6188 16.6344 58.5579 16.5125 58.5579C16.2079 58.436 15.9032 58.3141 15.5985 58.1313C15.5376 58.1313 15.4766 58.0704 15.4157 58.0704C15.0501 57.8876 14.6845 57.7048 14.258 57.522C14.197 57.522 14.1361 57.4611 14.0752 57.4611C13.7705 57.3392 13.4658 57.1564 13.1611 56.9736C13.1002 56.9127 13.0393 56.9127 12.9174 56.8517C12.1862 56.4861 11.455 56.1205 10.7847 55.694C10.7238 55.633 10.6628 55.633 10.6019 55.5721C10.2363 55.3893 9.93162 55.2065 9.62695 54.9628L30.1618 52.4644L30.5274 52.5863L31.0758 52.891Z" fill="url(#paint10_linear_349_3519)"/>
<path d="M34.1836 63.067C34.1227 63.067 34.1227 63.067 34.0617 63.067C33.2087 62.9452 32.3556 62.8233 31.5634 62.7014C31.4416 62.7014 31.2588 62.6405 31.1369 62.6405C30.2838 62.5186 29.4307 62.3358 28.6386 62.214C27.7855 62.0312 26.9934 61.8484 26.1403 61.6655C25.9575 61.6046 25.8356 61.6046 25.6528 61.5437C24.8607 61.3609 24.0685 61.1781 23.3373 60.9343H23.2764L33.7571 53.9878L37.9006 55.5721L34.2445 63.067H34.1836Z" fill="url(#paint11_linear_349_3519)"/>
<path d="M45.7609 63.6764C45.7609 63.6764 45.6999 63.6764 45.7609 63.6764C45.2734 63.6764 44.725 63.6764 44.1156 63.6764C43.9938 63.6764 43.811 63.6764 43.6891 63.6764C43.5672 63.6764 43.5063 63.6764 43.3844 63.6764C43.2016 63.6764 42.9579 63.6764 42.7751 63.6764C42.7141 63.6764 42.5923 63.6764 42.5313 63.6764C41.8001 63.6764 40.947 63.6155 40.033 63.5545C39.9721 63.5545 39.9112 63.5545 39.8502 63.5545C39.6065 63.5545 39.3018 63.4936 39.0581 63.4936C38.9362 63.4936 38.8143 63.4936 38.6925 63.4936C38.4487 63.4936 38.1441 63.4326 37.9003 63.4326C37.7175 63.4326 37.5957 63.4327 37.4129 63.3717C37.1691 63.3717 36.9254 63.3108 36.6816 63.3108L40.1549 56.2424L44.4812 57.8876L46.1265 63.6764C46.0655 63.6764 46.0655 63.6764 46.0046 63.6764C45.9437 63.6764 45.8218 63.6764 45.7609 63.6764Z" fill="url(#paint12_linear_349_3519)"/>
<path d="M52.0989 48.0772L53.9879 51.4286L48.0163 61.8483L47.5289 60.0812L46.6758 57.2173L52.0989 48.0772Z" fill="url(#paint13_linear_349_3519)"/>
<path d="M3.77793 16.696H0V37.9012H3.77793V16.696Z" fill="white"/>
<path d="M38.8762 36.0731C40.0949 34.8544 40.7042 33.392 40.7042 31.6249C40.7042 30.1625 40.2777 28.8829 39.3027 27.7251L38.9981 27.2986L39.3637 26.872C40.2777 25.7143 40.7652 24.4347 40.7652 22.9723C40.7652 21.2052 40.1558 19.7427 38.9371 18.524C37.7184 17.3054 36.256 16.696 34.4889 16.696H16.8789V37.9012H34.4889C36.1951 37.9012 37.6575 37.3528 38.8762 36.0731ZM20.6568 20.4739H34.4889C35.1592 20.4739 35.7685 20.7177 36.256 21.2052C36.7435 21.6926 36.9263 22.302 36.9263 22.9723C36.9263 23.6425 36.6826 24.2519 36.1951 24.6784C35.7076 25.1659 35.1592 25.4096 34.4889 25.4096H20.6568V20.4739ZM20.6568 29.1876H34.4889C35.1592 29.1876 35.7685 29.4313 36.1951 29.9188C36.6826 30.4062 36.9263 30.9546 36.9263 31.6859C36.9263 32.3561 36.6826 32.9655 36.256 33.453C35.7685 33.9404 35.1592 34.1842 34.4889 34.1842H20.6568V29.1876Z" fill="white"/>
<path d="M83.2359 16.696H79.458V37.9012H83.2359V16.696Z" fill="white"/>
<path d="M118.821 36.0731C120.04 34.8544 120.649 33.392 120.649 31.6249C120.649 29.8578 120.04 28.3954 118.821 27.1767C117.603 25.958 116.14 25.3487 114.434 25.3487H102.674C102.003 25.3487 101.394 25.1049 100.907 24.6784C100.419 24.1909 100.175 23.6425 100.175 22.9113C100.175 22.241 100.419 21.6317 100.907 21.1442C101.394 20.6567 102.003 20.413 102.674 20.413H120.284V16.6351H102.674C100.907 16.6351 99.4442 17.2444 98.2255 18.4631C97.0068 19.6818 96.3975 21.1442 96.3975 22.8504C96.3975 24.6175 97.0068 26.019 98.2255 27.2376C99.4442 28.4563 100.907 29.0657 102.674 29.0657H114.434C115.104 29.0657 115.653 29.3094 116.14 29.7969C116.628 30.2844 116.871 30.8328 116.871 31.564C116.871 32.2343 116.628 32.8436 116.14 33.3311C115.653 33.8186 115.104 34.0623 114.434 34.0623H96.824V37.8402H114.434C116.14 37.9012 117.542 37.3527 118.821 36.0731Z" fill="white"/>
<path d="M38.8762 36.0731C40.0949 34.8544 40.7042 33.392 40.7042 31.6249C40.7042 30.1625 40.2777 28.8829 39.3027 27.7251L38.9981 27.2986L39.3637 26.872C40.2777 25.7143 40.7652 24.4347 40.7652 22.9723C40.7652 21.2052 40.1558 19.7427 38.9371 18.524C37.7184 17.3054 36.256 16.696 34.4889 16.696H16.8789V37.9012H34.4889C36.1951 37.9012 37.6575 37.3528 38.8762 36.0731ZM20.6568 20.4739H34.4889C35.1592 20.4739 35.7685 20.7177 36.256 21.2052C36.7435 21.6926 36.9263 22.302 36.9263 22.9723C36.9263 23.6425 36.6826 24.2519 36.1951 24.6784C35.7076 25.1659 35.1592 25.4096 34.4889 25.4096H20.6568V20.4739ZM20.6568 29.1876H34.4889C35.1592 29.1876 35.7685 29.4313 36.1951 29.9188C36.6826 30.4062 36.9263 30.9546 36.9263 31.6859C36.9263 32.3561 36.6826 32.9655 36.256 33.453C35.7685 33.9404 35.1592 34.1842 34.4889 34.1842H20.6568V29.1876Z" fill="white"/>
<path d="M60.3253 76.0461L66.0531 64.2248L61.4221 54.6581V37.3528C63.9813 36.6215 65.8703 33.6358 65.8703 29.9188C65.9312 28.6391 65.7484 27.5423 65.3219 26.3236L61.3612 17.7319L60.9346 0.365617L60.8737 0.243748C60.63 -0.121858 60.0206 -0.121858 59.7159 0.243748L59.655 0.365617L59.2285 17.671L55.7552 25.2878C55.6333 25.5924 55.4505 25.8362 55.3287 26.2627L55.2677 26.3846C54.8412 27.4205 54.6584 28.5173 54.6584 29.8578C54.6584 33.6358 56.5474 36.6215 59.1066 37.3528V54.6581L54.4756 64.2248L60.2034 76.0461L57.9488 79.4584V79.5193C57.766 79.8849 57.7051 80.2505 57.7051 80.738C57.7051 82.2004 58.8629 83.3582 60.3253 83.3582C61.7877 83.3582 62.9455 82.2004 62.9455 80.738V80.6771C63.0064 80.2505 62.8845 79.9459 62.7017 79.5803L60.3253 76.0461Z" fill="url(#paint14_linear_349_3519)"/>
</g>
<defs>
<linearGradient id="paint0_linear_349_3519" x1="60.2811" y1="83.392" x2="60.2811" y2="75.9867" gradientUnits="userSpaceOnUse">
<stop offset="0.3817"/>
<stop offset="1" stop-color="#787878"/>
</linearGradient>
<linearGradient id="paint1_linear_349_3519" x1="60.2848" y1="89.9809" x2="60.2848" y2="73.5762" gradientUnits="userSpaceOnUse">
<stop stop-color="#000448"/>
<stop offset="0.3817" stop-color="#010067"/>
<stop offset="0.8602" stop-color="#00AAFF"/>
</linearGradient>
<linearGradient id="paint2_linear_349_3519" x1="79.6017" y1="55.6111" x2="79.6017" y2="46.9044" gradientUnits="userSpaceOnUse">
<stop stop-color="#810913"/>
<stop offset="1" stop-color="#FF0000"/>
</linearGradient>
<linearGradient id="paint3_linear_349_3519" x1="104.775" y1="53.0555" x2="104.775" y2="46.9044" gradientUnits="userSpaceOnUse">
<stop stop-color="#000448"/>
<stop offset="0.3817" stop-color="#010067"/>
<stop offset="0.8602" stop-color="#00AAFF"/>
</linearGradient>
<linearGradient id="paint4_linear_349_3519" x1="100.247" y1="59.9853" x2="100.247" y2="52.5415" gradientUnits="userSpaceOnUse">
<stop stop-color="#787878"/>
<stop offset="0.6183" stop-color="white"/>
</linearGradient>
<linearGradient id="paint5_linear_349_3519" x1="90.0191" y1="63.0701" x2="90.0191" y2="53.8897" gradientUnits="userSpaceOnUse">
<stop stop-color="#000448"/>
<stop offset="0.3817" stop-color="#010067"/>
<stop offset="0.8602" stop-color="#00AAFF"/>
</linearGradient>
<linearGradient id="paint6_linear_349_3519" x1="79.1889" y1="63.7066" x2="79.1889" y2="56.2616" gradientUnits="userSpaceOnUse">
<stop stop-color="#787878"/>
<stop offset="0.6183" stop-color="white"/>
</linearGradient>
<linearGradient id="paint7_linear_349_3519" x1="70.2174" y1="61.8201" x2="70.2174" y2="48.048" gradientUnits="userSpaceOnUse">
<stop stop-color="#000448"/>
<stop offset="0.3817" stop-color="#010067"/>
<stop offset="0.8602" stop-color="#00AAFF"/>
</linearGradient>
<linearGradient id="paint8_linear_349_3519" x1="40.9658" y1="55.6111" x2="40.9658" y2="46.9044" gradientUnits="userSpaceOnUse">
<stop stop-color="#810913"/>
<stop offset="1" stop-color="#FF0000"/>
</linearGradient>
<linearGradient id="paint9_linear_349_3519" x1="15.7925" y1="53.0555" x2="15.7925" y2="46.9044" gradientUnits="userSpaceOnUse">
<stop stop-color="#000448"/>
<stop offset="0.3817" stop-color="#010067"/>
<stop offset="0.8602" stop-color="#00AAFF"/>
</linearGradient>
<linearGradient id="paint10_linear_349_3519" x1="20.3204" y1="59.9853" x2="20.3204" y2="52.5415" gradientUnits="userSpaceOnUse">
<stop stop-color="#787878"/>
<stop offset="0.6183" stop-color="white"/>
</linearGradient>
<linearGradient id="paint11_linear_349_3519" x1="30.548" y1="63.0701" x2="30.548" y2="53.8897" gradientUnits="userSpaceOnUse">
<stop stop-color="#000448"/>
<stop offset="0.3817" stop-color="#010067"/>
<stop offset="0.8602" stop-color="#00AAFF"/>
</linearGradient>
<linearGradient id="paint12_linear_349_3519" x1="41.3782" y1="63.7066" x2="41.3782" y2="56.2616" gradientUnits="userSpaceOnUse">
<stop stop-color="#787878"/>
<stop offset="0.6183" stop-color="white"/>
</linearGradient>
<linearGradient id="paint13_linear_349_3519" x1="50.3505" y1="61.8201" x2="50.3505" y2="48.048" gradientUnits="userSpaceOnUse">
<stop stop-color="#000448"/>
<stop offset="0.3817" stop-color="#010067"/>
<stop offset="0.8602" stop-color="#00AAFF"/>
</linearGradient>
<linearGradient id="paint14_linear_349_3519" x1="60.2812" y1="61.3678" x2="60.2812" y2="-8.64334" gradientUnits="userSpaceOnUse">
<stop stop-color="#810913"/>
<stop offset="1" stop-color="#FF0000"/>
</linearGradient>
<clipPath id="clip0_349_3519">
<rect width="120.65" height="90" fill="white"/>
</clipPath>
</defs>
</svg>
